<?xml version="1.0" encoding="utf-8"?>
<svg width="535px" height="108px" viewBox="0 0 535 108" version="1.1" xmlns:xlink="http://www.w3.org/1999/xlink" xmlns="http://www.w3.org/2000/svg">
  <desc>Created with Lunacy</desc>
  <g id="Group">
    <path d="M0 0L362 0L362 90L0 90L0 0Z" transform="translate(0 9)" id="Rectangle" fill="#FFFFFF" stroke="none" />
    <g id="REMOTE" fill="#4946FF" transform="translate(38 0)">
      <path d="M191.7 31.248Q185.832 27.9 178.632 27.9Q171.504 27.9 165.636 31.248Q159.768 34.596 156.348 40.536Q152.928 46.476 152.928 53.964Q152.928 61.452 156.348 67.428Q159.768 73.404 165.636 76.752Q171.504 80.1 178.632 80.1Q185.76 80.1 191.628 76.752Q197.496 73.404 200.916 67.428Q204.336 61.452 204.336 53.964Q204.336 46.476 200.952 40.536Q197.568 34.596 191.7 31.248ZM19.368 60.372L30.384 79.596L43.992 79.596L31.896 59.58Q37.728 58.14 40.788 54.252Q43.848 50.364 43.848 44.82Q43.848 40.14 41.76 36.504Q39.672 32.868 35.496 30.78Q31.32 28.692 25.272 28.692L4.248 28.692L4.248 79.596L16.56 79.596L16.56 60.372L19.368 60.372ZM62.352 49.14L62.352 38.484L81.72 38.484L81.72 28.692L50.04 28.692L50.04 79.596L81.72 79.596L81.72 69.732L62.352 69.732L62.352 58.428L79.56 58.428L79.56 49.14L62.352 49.14ZM247.824 28.692L247.824 38.484L234 38.484L234 79.596L221.616 79.596L221.616 38.484L207.936 38.484L207.936 28.692L247.824 28.692ZM265.32 49.14L265.32 38.484L284.688 38.484L284.688 28.692L253.008 28.692L253.008 79.596L284.688 79.596L284.688 69.732L265.32 69.732L265.32 58.428L282.528 58.428L282.528 49.14L265.32 49.14ZM145.944 29.052L145.944 79.596L133.632 79.596L133.632 47.988L122.688 79.596L112.032 79.596L101.016 47.916L101.016 79.596L88.704 79.596L88.704 29.052L103.752 29.052L117.504 64.26L130.968 29.052L145.944 29.052ZM24.192 51.948L16.56 51.948L16.56 39.06L24.192 39.06Q27.792 39.06 29.556 40.788Q31.32 42.516 31.32 45.54Q31.32 48.708 29.592 50.328Q27.864 51.948 24.192 51.948ZM169.02 43.272Q172.584 39.348 178.632 39.348Q184.68 39.348 188.244 43.308Q191.808 47.268 191.808 53.964Q191.808 60.66 188.208 64.62Q184.608 68.58 178.632 68.58Q172.584 68.58 169.02 64.62Q165.456 60.66 165.456 53.964Q165.456 47.196 169.02 43.272Z" />
    </g>
    <g id="YES!" fill="#FFFFFF" transform="translate(377 0)">
      <path d="M148.68 61.38L156.456 26.172L142.92 26.172L138.24 61.38L148.68 61.38ZM126.144 67.068Q125.496 70.668 123.012 73.62Q120.528 76.572 116.424 78.336Q112.32 80.1 106.992 80.1Q98.208 80.1 93.312 75.816Q88.416 71.532 88.344 64.26L101.448 64.26Q101.232 67.14 102.744 68.796Q104.256 70.452 107.136 70.452Q109.728 70.452 111.348 68.868Q112.968 67.284 112.968 64.764Q112.968 62.964 111.888 61.704Q110.808 60.444 109.188 59.58Q107.568 58.716 104.544 57.492Q100.44 55.836 97.884 54.36Q95.328 52.884 93.528 50.22Q91.728 47.556 91.728 43.524Q91.728 41.724 92.016 40.068Q93.024 34.452 98.28 31.176Q103.536 27.9 110.88 27.9Q119.88 27.9 124.38 31.968Q128.88 36.036 129.096 43.02L115.848 43.02Q115.992 40.5 114.66 39.024Q113.328 37.548 110.736 37.548Q108.36 37.548 106.812 38.88Q105.264 40.212 105.264 42.66Q105.264 44.316 106.308 45.504Q107.352 46.692 108.936 47.484Q110.52 48.276 113.472 49.5Q117.576 51.156 120.132 52.632Q122.688 54.108 124.56 56.772Q126.432 59.436 126.432 63.54Q126.432 65.34 126.144 67.068ZM29.016 62.676L52.704 28.692L38.736 28.692L25.344 49.428L19.152 28.692L5.04 28.692L16.704 62.676L13.752 79.596L26.136 79.596L29.016 62.676ZM66.24 49.14L68.04 38.484L87.408 38.484L89.136 28.692L57.456 28.692L48.528 79.596L80.208 79.596L81.936 69.732L62.568 69.732L64.512 58.428L81.72 58.428L83.376 49.14L66.24 49.14ZM146.664 79.596L148.896 67.284L136.08 67.284L133.848 79.596L146.664 79.596Z" />
    </g>
  </g>
</svg>